<?xml version="1.0" standalone="no"?>
<!DOCTYPE svg PUBLIC "-//W3C//DTD SVG 20010904//EN"
 "http://www.w3.org/TR/2001/REC-SVG-20010904/DTD/svg10.dtd">
<svg version="1.0" xmlns="http://www.w3.org/2000/svg"
 width="382.000000pt" height="284.000000pt" viewBox="0 0 382.000000 284.000000"
 preserveAspectRatio="xMidYMid meet">

<g transform="translate(0.000000,284.000000) scale(0.100000,-0.100000)"
fill="#000000" stroke="none">
<path d="M74 2703 c3 -26 11 -52 16 -57 6 -6 10 -19 10 -30 0 -12 7 -34 15
-49 8 -15 17 -43 21 -63 3 -19 10 -37 15 -40 5 -3 9 -14 9 -26 0 -11 6 -34 14
-51 7 -18 23 -57 36 -87 12 -30 26 -62 31 -70 5 -8 12 -22 15 -30 97 -250 280
-416 894 -810 73 -47 156 -98 185 -115 239 -137 312 -193 337 -260 9 -22 24
-59 33 -82 10 -23 15 -49 11 -59 -3 -9 -1 -23 5 -31 16 -19 6 -207 -14 -253
-40 -93 -50 -121 -44 -126 4 -4 11 6 17 22 24 64 64 144 72 144 17 0 -3 -124
-39 -247 -42 -145 -40 -153 41 -153 33 0 60 -6 76 -17 55 -39 483 -9 498 35 2
7 -5 12 -17 12 -12 0 -44 23 -73 53 -44 43 -57 66 -77 127 -13 41 -27 84 -32
95 -66 168 -66 365 -1 504 32 68 111 148 287 291 126 101 325 268 430 360 28
25 71 61 95 80 24 19 51 42 60 50 8 8 29 25 45 38 17 13 68 59 115 102 47 42
102 92 122 109 44 38 156 170 227 266 28 39 55 75 61 82 15 18 13 103 -2 103
-7 0 -26 -13 -43 -28 -57 -53 -127 -101 -163 -113 -20 -7 -47 -18 -58 -26 -12
-8 -26 -13 -30 -12 -5 1 -12 0 -16 -1 -5 -1 -11 -3 -15 -4 -5 -1 -18 -8 -31
-15 -13 -7 -30 -10 -37 -7 -7 2 -16 2 -20 -2 -4 -4 -10 -7 -13 -8 -4 0 -18 -5
-32 -11 -46 -19 -133 -42 -142 -37 -4 3 -8 0 -8 -6 0 -7 -7 -9 -16 -6 -9 3
-25 -1 -37 -9 -12 -8 -31 -15 -43 -15 -11 0 -35 -7 -52 -16 -18 -8 -36 -13
-42 -9 -5 3 -10 1 -10 -5 0 -6 -6 -10 -12 -9 -7 1 -26 -3 -43 -10 -16 -7 -40
-14 -53 -15 -12 -2 -25 -6 -29 -9 -3 -4 -16 -7 -28 -7 -12 0 -25 -3 -29 -7 -4
-5 -11 -8 -14 -9 -4 0 -15 -4 -24 -8 -9 -4 -25 -9 -35 -11 -10 -2 -19 -4 -20
-5 -2 -2 -6 -3 -10 -4 -5 -1 -19 -8 -31 -15 -13 -7 -26 -10 -29 -7 -4 3 -21
-3 -39 -14 -18 -12 -36 -20 -41 -19 -4 1 -11 0 -15 -1 -5 -1 -11 -3 -15 -5 -5
-1 -21 -7 -38 -14 -16 -7 -39 -14 -50 -15 -34 -5 -145 -48 -145 -57 0 -5 -6
-9 -13 -9 -22 0 -72 -62 -118 -145 -22 -41 -44 -43 -63 -7 -9 17 -19 32 -23
34 -5 1 -23 21 -42 43 -37 42 -104 97 -133 108 -10 3 -18 11 -18 16 0 6 -7 8
-15 5 -8 -4 -15 -1 -15 6 0 6 -4 9 -9 6 -5 -3 -31 2 -57 11 -27 9 -55 18 -62
20 -8 2 -16 12 -19 23 -6 23 -5 23 -36 9 -19 -9 -32 -8 -58 3 -19 8 -59 22
-89 32 -106 33 -285 100 -288 108 -2 5 -7 6 -12 3 -7 -4 -39 5 -140 40 -69 24
-255 96 -271 105 -9 5 -35 14 -58 20 -22 6 -41 15 -41 21 0 6 -4 8 -9 4 -5 -3
-15 0 -23 7 -7 7 -43 28 -78 47 -83 43 -123 81 -206 198 -78 107 -100 118 -90
46z m526 -399 c25 -24 -13 -17 -87 16 -62 28 -82 44 -83 62 0 9 151 -60 170
-78z m2709 12 c-2 -2 -17 -6 -34 -10 -22 -5 -26 -4 -15 4 14 9 59 15 49 6z
m-149 -48 c-347 -111 -650 -213 -820 -275 -198 -72 -287 -98 -265 -75 9 8 189
78 265 102 14 5 77 27 140 50 113 40 496 160 595 185 28 7 61 18 75 23 14 6
36 11 50 11 14 0 -4 -9 -40 -21z m-2369 -14 c41 -14 241 -82 444 -151 204 -69
395 -138 425 -154 53 -27 110 -71 110 -84 0 -4 -12 2 -27 13 -48 34 -105 58
-218 95 -778 253 -825 270 -825 299 0 12 10 10 91 -18z m1179 -1281 c29 -104
70 -237 92 -297 21 -60 37 -114 34 -120 -7 -21 -68 129 -137 337 -69 207 -81
267 -56 267 9 0 32 -66 67 -187z m155 138 c-3 -6 -18 -11 -33 -10 l-27 1 30
13 c32 14 41 13 30 -4z m-417 -73 c16 -20 74 -215 70 -235 -2 -10 -21 32 -42
92 -21 61 -42 114 -47 120 -12 12 -12 35 0 35 5 0 13 -6 19 -12z"/>
</g>
</svg>
